<svg width="19" height="20" viewBox="0 0 19 20" fill="none" xmlns="http://www.w3.org/2000/svg">
<path d="M7.59228 17.1096C7.66783 16.0655 6.62483 15.1367 5.26268 15.0351C3.90053 14.9334 2.73504 15.6973 2.6595 16.7413C2.58395 17.7854 3.62695 18.7141 4.9891 18.8158C6.35125 18.9175 7.51673 18.1536 7.59228 17.1096Z" stroke="white" stroke-miterlimit="10" stroke-linecap="round" stroke-linejoin="round"/>
<path d="M2.80347 16.6425C2.80347 16.6425 4.23724 17.44 5.00344 17.047C5.77343 16.6579 6.31583 16.8235 7.54478 17.3899" stroke="white" stroke-miterlimit="10" stroke-linecap="round" stroke-linejoin="round"/>
<path d="M5.00348 14.982C4.71142 14.0998 5.28796 13.048 6.36519 12.4239C7.55241 11.7342 8.92549 11.9153 9.43755 12.8245C9.94962 13.7338 9.40342 15.0282 8.2162 15.7179C7.92034 15.8912 7.6131 16.0068 7.30966 16.0723" stroke="white" stroke-miterlimit="10" stroke-linecap="round" stroke-linejoin="round"/>
<path d="M9.37685 12.9825C9.37685 12.9825 7.74963 13.1366 7.3286 13.8956C6.90757 14.6546 6.41827 14.7971 5.08691 15.0283" stroke="white" stroke-miterlimit="10" stroke-linecap="round" stroke-linejoin="round"/>
<path d="M4.68118 13.832C5.7723 13.1984 6.27503 12.0064 5.80406 11.1697C5.33309 10.3329 4.06677 10.1682 2.97565 10.8019C1.88453 11.4355 1.3818 12.6274 1.85277 13.4642C2.32374 14.3009 3.59006 14.4656 4.68118 13.832Z" stroke="white" stroke-miterlimit="10" stroke-linecap="round" stroke-linejoin="round"/>
<path d="M5.75069 11.3181C5.75069 11.3181 4.25244 11.4568 3.86555 12.158C3.47486 12.8592 2.97418 13.0171 1.74902 13.2252" stroke="white" stroke-miterlimit="10" stroke-linecap="round" stroke-linejoin="round"/>
<path d="M3.78232 8.75658C5.03206 8.62011 5.96294 7.73255 5.8615 6.77417C5.76005 5.81579 4.6647 5.1495 3.41496 5.28597C2.16522 5.42245 1.23434 6.31 1.33578 7.26839C1.43722 8.22677 2.53258 8.89306 3.78232 8.75658Z" stroke="white" stroke-miterlimit="10" stroke-linecap="round" stroke-linejoin="round"/>
<path d="M5.75094 6.88758C5.75094 6.88758 4.32475 6.406 3.69131 6.89143C3.05787 7.37301 2.53822 7.31522 1.33203 7.01087" stroke="white" stroke-miterlimit="10" stroke-linecap="round" stroke-linejoin="round"/>
<path d="M16.4038 17.1226C17.1626 16.1048 17.1644 14.8081 16.4079 14.2262C15.6514 13.6443 14.423 13.9976 13.6642 15.0154C12.9054 16.0331 12.9036 17.3299 13.6601 17.9118C14.4166 18.4937 15.645 18.1403 16.4038 17.1226Z" stroke="white" stroke-miterlimit="10" stroke-linecap="round" stroke-linejoin="round"/>
<path d="M16.4168 14.3849C16.4168 14.3849 15.093 15.113 15.0058 15.9105C14.9185 16.708 14.5165 17.0548 13.4734 17.7367" stroke="white" stroke-miterlimit="10" stroke-linecap="round" stroke-linejoin="round"/>
<path d="M3.03491 14.2L4.35868 15.0976" stroke="white" stroke-miterlimit="10" stroke-linecap="round" stroke-linejoin="round"/>
<path d="M7.57138 17.2743L9.28963 18.4417L15.1423 11.5993C16.5344 9.48423 16.0754 7.14952 13.993 5.7356L13.7844 5.59305C11.702 4.17912 8.86102 4.75702 7.47276 6.87213L5.12866 10.4358" stroke="white" stroke-miterlimit="10" stroke-linecap="round" stroke-linejoin="round"/>
<path d="M3.03491 14.2L4.35868 15.0976" stroke="white" stroke-miterlimit="10" stroke-linecap="round" stroke-linejoin="round"/>
<path d="M7.73828 17.3898L9.0355 18.2682L12.8172 12.5162C13.9361 10.8134 13.481 8.49406 11.8044 7.35753L11.6337 7.24195C9.95721 6.10542 7.6738 6.56774 6.55485 8.27061L5.12866 10.4397" stroke="white" stroke-miterlimit="10" stroke-linecap="round" stroke-linejoin="round"/>
<path d="M14.7555 6.29042C14.7555 6.29042 17.6003 3.82472 17.9227 2.81148C18.2451 1.79823 17.4562 1.26656 17.4562 1.26656C17.4562 1.26656 16.7241 0.661694 15.8669 1.27427C15.0097 1.88684 13.5417 5.3812 13.5417 5.3812" stroke="white" stroke-miterlimit="10" stroke-linecap="round" stroke-linejoin="round"/>
</svg>
