<svg width="16" height="19" viewBox="0 0 16 19" fill="none" xmlns="http://www.w3.org/2000/svg">
<g id="Icon French Press">
<path id="Vector" d="M10.6721 18H3.99941C3.21393 18 2.57861 17.3902 2.57861 16.6363V5.505H12.0929V16.6363C12.0929 17.3902 11.4576 18 10.6721 18Z" stroke="white" stroke-miterlimit="10" stroke-linecap="round" stroke-linejoin="round"/>
<path id="Vector_2" d="M12.093 3.85669H1C1 4.76582 1.76622 5.50126 2.71342 5.50126H12.0891V3.85669H12.093Z" stroke="white" stroke-miterlimit="10" stroke-linecap="round" stroke-linejoin="round"/>
<path id="Vector_3" d="M12.0929 3.85676H2.57861V3.38372C2.57861 2.6298 3.21393 2.02002 3.99941 2.02002H10.6721C11.4576 2.02002 12.0929 2.6298 12.0929 3.38372V3.85676Z" stroke="white" stroke-miterlimit="10" stroke-linecap="round" stroke-linejoin="round"/>
<path id="Vector_4" d="M8.11546 2.02H6.04395V1.99413C6.04395 1.44717 6.50599 1 7.0797 1C7.64956 1 8.11546 1.44348 8.11546 1.99413V2.02Z" stroke="white" stroke-miterlimit="10" stroke-linecap="round" stroke-linejoin="round"/>
<path id="Vector_5" d="M13.4946 14.8883H12.0969V5.505H13.4946C14.3263 5.505 15.0001 6.15175 15.0001 6.95001V13.4433C15.0001 14.2378 14.3263 14.8883 13.4946 14.8883Z" stroke="white" stroke-miterlimit="10" stroke-linecap="round" stroke-linejoin="round"/>
<path id="Vector_6" d="M12.0929 11.0078H2.57861V12.1313H12.0929V11.0078Z" stroke="white" stroke-miterlimit="10" stroke-linecap="round" stroke-linejoin="round"/>
<path id="Vector_7" d="M7.07959 5.64917V10.7307" stroke="white" stroke-miterlimit="10" stroke-linecap="round" stroke-linejoin="round"/>
</g>
</svg>
