<svg width="44" height="44" viewBox="0 0 44 44" fill="none" xmlns="http://www.w3.org/2000/svg">
<path d="M37.0249 19.4266C37.0249 19.4266 42.8 18.0394 42.8 23.3602C42.8 29.8219 32.4861 32.6968 32.4861 32.6968" stroke="#3A3734" stroke-width="2" stroke-miterlimit="10" stroke-linecap="round" stroke-linejoin="round"/>
<path d="M26.4713 1C27.523 2.2321 27.5968 4.00266 26.665 5.3169C25.7609 6.5855 25.7978 8.28306 26.7573 9.50603" stroke="#3A3734" stroke-width="2" stroke-miterlimit="10" stroke-linecap="round" stroke-linejoin="round"/>
<path d="M19.1278 1C20.1795 2.2321 20.2533 4.00266 19.3215 5.3169C18.4174 6.5855 18.4543 8.28306 19.4138 9.50603" stroke="#3A3734" stroke-width="2" stroke-miterlimit="10" stroke-linecap="round" stroke-linejoin="round"/>
<path d="M11.7752 1C12.8269 2.2321 12.9007 4.00266 11.969 5.3169C11.0649 6.5855 11.1018 8.28306 12.0612 9.50603" stroke="#3A3734" stroke-width="2" stroke-miterlimit="10" stroke-linecap="round" stroke-linejoin="round"/>
<path d="M28.9343 42.8H11.9966C7.90055 42.8 3.95211 41.4401 1 39.0125H39.9401C36.9788 41.4401 33.0304 42.8 28.9343 42.8Z" stroke="#3A3734" stroke-width="2" stroke-miterlimit="10" stroke-linecap="round" stroke-linejoin="round"/>
<path d="M19.9672 17.428H3.44463C3.44463 17.428 1.59957 34.221 16.5169 39.0125" stroke="#3A3734" stroke-width="2" stroke-miterlimit="10" stroke-linecap="round" stroke-linejoin="round"/>
<path d="M19.9673 17.428H36.4899C36.4899 17.428 38.3349 34.221 23.4176 39.0125" stroke="#3A3734" stroke-width="2" stroke-miterlimit="10" stroke-linecap="round" stroke-linejoin="round"/>
</svg>
