<svg width="50" height="55" viewBox="0 0 50 55" fill="none" xmlns="http://www.w3.org/2000/svg">
<path d="M48.905 8.88672C40.93 10.7457 18.699 25.9037 14.783 40.1267" stroke="#3A3734" stroke-width="2" stroke-miterlimit="10" stroke-linecap="round" stroke-linejoin="round"/>
<path d="M12.6051 53.2167C16.2198 53.2167 19.1501 50.2864 19.1501 46.6717C19.1501 43.057 16.2198 40.1267 12.6051 40.1267C8.99035 40.1267 6.06006 43.057 6.06006 46.6717C6.06006 50.2864 8.99035 53.2167 12.6051 53.2167Z" stroke="#3A3734" stroke-width="2" stroke-miterlimit="10" stroke-linecap="round" stroke-linejoin="round"/>
<path d="M9.49194 47.9035C9.49194 47.9035 12.3519 47.5295 12.3519 50.0595" stroke="#3A3734" stroke-width="2" stroke-miterlimit="10" stroke-linecap="round" stroke-linejoin="round"/>
<path d="M27.4 46.6715C31.0147 46.6715 33.945 43.7412 33.945 40.1265C33.945 36.5118 31.0147 33.5815 27.4 33.5815C23.7853 33.5815 20.855 36.5118 20.855 40.1265C20.855 43.7412 23.7853 46.6715 27.4 46.6715Z" stroke="#3A3734" stroke-width="2" stroke-miterlimit="10" stroke-linecap="round" stroke-linejoin="round"/>
<path d="M26.509 43.3496C26.509 43.3496 27.939 40.8416 29.952 42.3596" stroke="#3A3734" stroke-width="2" stroke-miterlimit="10" stroke-linecap="round" stroke-linejoin="round"/>
<path d="M7.545 36.5956C11.1597 36.5956 14.09 33.6653 14.09 30.0506C14.09 26.4359 11.1597 23.5056 7.545 23.5056C3.9303 23.5056 1 26.4359 1 30.0506C1 33.6653 3.9303 36.5956 7.545 36.5956Z" stroke="#3A3734" stroke-width="2" stroke-miterlimit="10" stroke-linecap="round" stroke-linejoin="round"/>
<path d="M4.20093 29.8635C4.20093 29.8635 6.96193 30.7215 5.89493 33.0205" stroke="#3A3734" stroke-width="2" stroke-miterlimit="10" stroke-linecap="round" stroke-linejoin="round"/>
<path d="M13.8811 28.4227C13.8811 28.4227 17.5111 26.5747 21.5371 28.4227C21.5371 28.4227 24.9911 30.0507 25.0901 34.0107" stroke="#3A3734" stroke-width="2" stroke-miterlimit="10" stroke-linecap="round" stroke-linejoin="round"/>
<path d="M12.605 14.6506C12.605 14.6506 23.737 14.1446 30.612 19.6446" stroke="#3A3734" stroke-width="2" stroke-miterlimit="10" stroke-linecap="round" stroke-linejoin="round"/>
<path d="M26.5091 17.0705C26.5091 17.0705 22.4941 2.69353 3.10107 14.2435C3.10107 14.2435 13.4741 24.1655 25.9591 16.8065" stroke="#3A3734" stroke-width="2" stroke-miterlimit="10" stroke-linecap="round" stroke-linejoin="round"/>
<path d="M36.354 16.1025C36.354 16.1025 40.226 22.6585 40.369 29.2585" stroke="#3A3734" stroke-width="2" stroke-miterlimit="10" stroke-linecap="round" stroke-linejoin="round"/>
<path d="M38.807 21.5256C38.807 21.5256 30.612 26.4096 40.369 40.4126C40.369 40.4126 50.555 26.2446 38.807 21.5256Z" stroke="#3A3734" stroke-width="2" stroke-miterlimit="10" stroke-linecap="round" stroke-linejoin="round"/>
<path d="M39.2689 13.4516C39.2689 13.4516 32.7349 8.35859 27.3999 6.43359" stroke="#3A3734" stroke-width="2" stroke-miterlimit="10" stroke-linecap="round" stroke-linejoin="round"/>
<path d="M35.254 10.6136C35.254 10.6136 38.136 -1.54139 14.772 1.48361C14.772 1.48361 24.705 15.4756 35.969 11.0976" stroke="#3A3734" stroke-width="2" stroke-miterlimit="10" stroke-linecap="round" stroke-linejoin="round"/>
</svg>
